<svg xmlns="http://www.w3.org/2000/svg" viewBox="0 0 24 24" id="Webpack"><path d="m2.371 6.006.001-.001h-.001z" fill="#d85b53" class="color000000 svgShape"></path><path fill="#9ae45f" d="m12.434 18.74 6.079-3.288V8.939l-6.079 3.452z" class="color1b75bb svgShape"></path><path fill="#26d7fe" d="m23 6.39-3.619 2.054v7.395L23 17.896z" class="color8ad0f3 svgShape"></path><path fill="#9ae45f" d="m18.105 8.185-6.103-3.302-6.103 3.302 6.103 3.465z" class="color1b75bb svgShape"></path><path fill="#26d7fe" d="m18.597 16.38-6.163 3.334V24l9.89-5.502zM11.567 19.714 5.405 16.38l-3.728 2.118L11.567 24zM1 17.896l3.619-2.057V8.444L1 6.39zM5.019 7.686l6.547-3.542V0L1.424 5.644z" class="color8ad0f3 svgShape"></path><path fill="#9ae45f" d="M11.567 12.391 5.488 8.939v6.513l6.079 3.288z" class="color1b75bb svgShape"></path><path fill="#26d7fe" d="m12.434 4.144 6.547 3.543 3.596-2.043L12.434 0z" class="color8ad0f3 svgShape"></path></svg>